<svg id="组件_46_1" data-name="组件 46 – 1" xmlns="http://www.w3.org/2000/svg" xmlns:xlink="http://www.w3.org/1999/xlink" width="654.777" height="579.857" viewBox="0 0 654.777 579.857">
  <defs>
    <linearGradient id="linear-gradient" x1="0.593" y1="0.73" x2="0.439" y2="0.365" gradientUnits="objectBoundingBox">
      <stop offset="0" stop-color="#ff6161"/>
      <stop offset="1" stop-color="#9e005d"/>
    </linearGradient>
    <linearGradient id="linear-gradient-2" x1="0.551" y1="0.649" x2="0.396" y2="0.241" xlink:href="#linear-gradient"/>
    <linearGradient id="linear-gradient-3" x1="0.596" y1="0.746" x2="0.437" y2="0.356" xlink:href="#linear-gradient"/>
    <linearGradient id="linear-gradient-4" x1="0.596" y1="0.746" x2="0.438" y2="0.356" xlink:href="#linear-gradient"/>
    <linearGradient id="linear-gradient-5" x1="0.446" y1="0.661" x2="0.627" y2="0.068" gradientUnits="objectBoundingBox">
      <stop offset="0" stop-color="#fff" stop-opacity="0"/>
      <stop offset="1" stop-color="#9e005d"/>
    </linearGradient>
    <linearGradient id="linear-gradient-6" x1="60.694" y1="0.669" x2="60.399" y2="0.139" xlink:href="#linear-gradient-5"/>
    <linearGradient id="linear-gradient-7" x1="62.588" y1="0.657" x2="62.292" y2="0.105" xlink:href="#linear-gradient-5"/>
    <linearGradient id="linear-gradient-8" x1="64.909" y1="0.679" x2="64.596" y2="0.103" xlink:href="#linear-gradient-5"/>
    <linearGradient id="linear-gradient-9" x1="0.236" y1="0.752" x2="0.647" y2="0.25" xlink:href="#linear-gradient-5"/>
    <linearGradient id="linear-gradient-10" x1="1.67" y1="0.798" x2="1.434" y2="0.296" xlink:href="#linear-gradient-5"/>
    <linearGradient id="linear-gradient-11" x1="0.39" y1="0.624" x2="0.643" y2="0.054" gradientUnits="objectBoundingBox">
      <stop offset="0.01" stop-color="#7bbdef"/>
      <stop offset="1" stop-color="#225870"/>
    </linearGradient>
    <linearGradient id="linear-gradient-12" x1="0.408" y1="0.742" x2="0.607" y2="0.154" xlink:href="#linear-gradient-11"/>
    <linearGradient id="linear-gradient-13" x1="0.411" y1="0.768" x2="0.579" y2="0.275" xlink:href="#linear-gradient-11"/>
    <linearGradient id="linear-gradient-14" x1="0.526" y1="-0.026" x2="0.485" y2="0.686" gradientUnits="objectBoundingBox">
      <stop offset="0" stop-color="#ffeed9" stop-opacity="0"/>
      <stop offset="1" stop-color="#68e1fd"/>
    </linearGradient>
  </defs>
  <g id="data-storage-isometric-54039" transform="translate(261.832 147.511)">
    <path id="路径_585" data-name="路径 585" d="M194.28,289.28,14.56,183.06c-5.72-3.21-10.63-8.49-5.05-11.94l180.37-104c2.71-1.68,6.82-2.78,9.57-1.18L388.11,175.48c5.72,3.32,6.75,12.6,1,15.93L218,289.11a23.9,23.9,0,0,1-23.72.17Z" fill="#ff6161"/>
    <path id="路径_586" data-name="路径 586" d="M219.27,287l37.18-20.4-42-25.14L179.68,262.7C192.17,271.63,219.27,287,219.27,287Z" fill="url(#linear-gradient)"/>
    <path id="路径_587" data-name="路径 587" d="M155.46,231.69l43.76,28.24,115.67-57.88-51.75-30.99" fill="url(#linear-gradient-2)"/>
    <path id="路径_588" data-name="路径 588" d="M226.91,243.56l-3.39-5,64.77-44.35c1.39-.95,2.79-1.87,4.19-2.8,9.82-6.47,18.3-12.06,19-23.93.67-11.22-8.17-18.79-13.5-22.31-22.62-14.92-48,5.4-48.27,5.61l-3.79-4.65c.29-.24,29.1-23.29,55.36-6,11.07,7.3,16.82,17.13,16.19,27.67-.89,14.87-11.47,21.84-21.7,28.58-1.37.9-2.75,1.81-4.1,2.74Z" fill="#68e1fd"/>
    <path id="路径_589" data-name="路径 589" d="M185.57,246.39v10.72l23,11.86,21.68-12s7.14-13.7-3-20.2" fill="#3129a3"/>
    <path id="路径_590" data-name="路径 590" d="M185.57,246.39l23.93,13.39L231,247.85s3.54-6.9-5.76-12.55-19.35-1-19.35-1Z" fill="#6565c4"/>
    <path id="路径_591" data-name="路径 591" d="M179.68,256.52v6.18l16.12,9.21v-6.26Z" fill="#a7a7a7"/>
    <path id="路径_592" data-name="路径 592" d="M179.68,256.52l16.07,9.13,10.12-5.72-16.06-9.35Z" fill="#dbdbdb"/>
    <path id="路径_593" data-name="路径 593" d="M205.87,259.93v6.49s-10.07,5.82-10.07,5.49v-6.26Z" fill="silver"/>
    <path id="路径_594" data-name="路径 594" d="M181.08,258.95v3.51l13.07,7.58v-3.66Z" fill="#595958"/>
    <path id="路径_595" data-name="路径 595" d="M274.07,175.19v-.07h0V160.21l-11.66,6.53-52.13-29.91a9,9,0,0,0-8.94,0l-87.93,50.76-14.46-4.38v15.3h0a3.79,3.79,0,0,0,2,3L164.84,237a7.4,7.4,0,0,0,7.35-.1l100.45-59.27a2.88,2.88,0,0,0,1.43-2.46Z" fill="#68e1fd"/>
    <path id="路径_596" data-name="路径 596" d="M274.07,175.19v-.07h0V160.21l-11.66,6.53-52.13-29.91a9,9,0,0,0-8.94,0l-87.93,50.76-14.46-4.38v15.3h0a3.79,3.79,0,0,0,2,3L164.84,237a7.4,7.4,0,0,0,7.35-.1l100.45-59.27a2.88,2.88,0,0,0,1.43-2.46Z" fill="#3129a3" opacity="0.28"/>
    <path id="路径_597" data-name="路径 597" d="M100.91,187.21l63.93,35.49a7.4,7.4,0,0,0,7.35-.1l100.45-59.27a2.92,2.92,0,0,0,0-5l-62.35-35.78a9,9,0,0,0-8.94,0l-100.46,58a3.85,3.85,0,0,0,.02,6.66Z" fill="#68e1fd"/>
    <ellipse id="椭圆_93" data-name="椭圆 93" cx="2.25" cy="2.72" rx="2.25" ry="2.72" transform="matrix(0.8, -0.6, 0.6, 0.8, 106.141, 197.689)" fill="#fff"/>
    <line id="直线_158" data-name="直线 158" x2="12.27" y2="7.05" transform="translate(116.7 202.93)" fill="#fff"/>
    <path id="路径_598" data-name="路径 598" d="M116.07,204l12.27,7.05a1.25,1.25,0,1,0,1.26-2.16l-12.27-7.05a1.25,1.25,0,0,0-1.26,2.16Z" fill="#fff"/>
    <path id="路径_599" data-name="路径 599" d="M274.19,154.61v-.07h0V139.63l-11.66,6.53L210.4,116.25a9,9,0,0,0-8.94,0L113.5,167,99,162.63v15.3h0a3.79,3.79,0,0,0,2,3l64,35.5a7.4,7.4,0,0,0,7.35-.1L272.8,157.06a2.88,2.88,0,0,0,1.43-2.46Z" fill="#68e1fd"/>
    <path id="路径_600" data-name="路径 600" d="M274.19,154.61v-.07h0V139.63l-11.66,6.53L210.4,116.25a9,9,0,0,0-8.94,0L113.5,167,99,162.63v15.3h0a3.79,3.79,0,0,0,2,3l64,35.5a7.4,7.4,0,0,0,7.35-.1L272.8,157.06a2.88,2.88,0,0,0,1.43-2.46Z" fill="#3129a3" opacity="0.28"/>
    <path id="路径_601" data-name="路径 601" d="M101,165.63l64,35.49a7.4,7.4,0,0,0,7.35-.1L272.8,141.75a2.92,2.92,0,0,0,0-5l-62.35-35.78a9,9,0,0,0-8.94,0L101,158.94a3.85,3.85,0,0,0,0,6.69Z" fill="#68e1fd"/>
    <ellipse id="椭圆_94" data-name="椭圆 94" cx="2.25" cy="2.72" rx="2.25" ry="2.72" transform="matrix(0.8, -0.6, 0.6, 0.8, 106.254, 177.117)" fill="#fff"/>
    <line id="直线_159" data-name="直线 159" x2="12.26" y2="7.05" transform="translate(116.82 182.35)" fill="#fff"/>
    <path id="路径_602" data-name="路径 602" d="M116.18,183.43l12.27,7.05a1.25,1.25,0,1,0,1.26-2.16l-12.27-7.05a1.25,1.25,0,0,0-1.26,2.16Z" fill="#fff"/>
    <path id="路径_603" data-name="路径 603" d="M274.19,133.19v-.07h0V118.21l-11.66,6.53L210.37,94.83a9,9,0,0,0-8.94,0L113.5,145.59,99,141.21v15.3h0a3.79,3.79,0,0,0,2,3L165,195a7.4,7.4,0,0,0,7.35-.1L272.8,135.63a2.88,2.88,0,0,0,1.43-2.46Z" fill="#68e1fd"/>
    <path id="路径_604" data-name="路径 604" d="M274.19,133.19v-.07h0V118.21l-11.66,6.53L210.37,94.83a9,9,0,0,0-8.94,0L113.5,145.59,99,141.21v15.3h0a3.79,3.79,0,0,0,2,3L165,195a7.4,7.4,0,0,0,7.35-.1L272.8,135.63a2.88,2.88,0,0,0,1.43-2.46Z" fill="#3129a3" opacity="0.28"/>
    <path id="路径_605" data-name="路径 605" d="M101,145.22l64,35.48a7.4,7.4,0,0,0,7.35-.1L272.8,121.33a2.92,2.92,0,0,0,0-5L210.37,80.52a9,9,0,0,0-8.94,0L101,138.52a3.85,3.85,0,0,0,0,6.7Z" fill="#68e1fd"/>
    <ellipse id="椭圆_95" data-name="椭圆 95" cx="2.25" cy="2.72" rx="2.25" ry="2.72" transform="matrix(0.8, -0.6, 0.6, 0.8, 106.255, 155.688)" fill="#fff"/>
    <line id="直线_160" data-name="直线 160" x2="12.26" y2="7.05" transform="translate(116.82 160.93)" fill="#fff"/>
    <path id="路径_606" data-name="路径 606" d="M116.18,162l12.27,7.05a1.25,1.25,0,1,0,1.26-2.16l-12.27-7.05a1.25,1.25,0,1,0-1.26,2.16Z" fill="#fff"/>
    <path id="路径_607" data-name="路径 607" d="M193.9,92.33c-.65.32-6,10-1.62,12.23s11.58-.41,11.18-2.77,2.45-4.66-1.3-10.33" fill="#3129a3"/>
    <path id="路径_608" data-name="路径 608" d="M230.49,182.29s1.82,3.5,3.23,4.4,8.7-.08,8.7,1.6-8.84,4.07-11.92,4.49a8.12,8.12,0,0,1-3.62-3.37,84.851,84.851,0,0,1-4.52-9.4" fill="#3129a3"/>
    <path id="路径_609" data-name="路径 609" d="M238,176.9s1.82,3.5,3.23,4.4,8.7-.08,8.7,1.6S241,187,238,187.39a8.12,8.12,0,0,1-3.62-3.37,84.85,84.85,0,0,1-4.52-9.4" fill="#3129a3"/>
    <path id="路径_610" data-name="路径 610" d="M207.1,108.91s9.62,13.54,12,15.17c0,0-7,2.57-7.06,7.95,0,0-8.44-4.61-10.32-7.24S207.1,108.91,207.1,108.91Z" fill="#ffc36c"/>
    <path id="路径_611" data-name="路径 611" d="M218.2,158.15c2.13,5.28,4.24,10.56,6.46,15.79C222,169.32,218.94,163.12,218.2,158.15Z" fill="#d86044"/>
    <path id="路径_612" data-name="路径 612" d="M196,123.9c2.78-1.61,8.51-9.78,8.59.53,0,0,20.84,10,23.17,20.25,1.64,7.23,9.73,23.55,13.35,33.09a25.64,25.64,0,0,1-10.64,4.52c-4.08-8.75-7.62-17.74-11.24-26.7a1,1,0,0,0-1.15-.62,1.555,1.555,0,0,1,.09-.64s-15.08-.85-21.46-7.68C192.92,142.59,193.25,125.51,196,123.9Z" fill="#d86044"/>
    <path id="路径_613" data-name="路径 613" d="M188.58,126.47c2.78-1.61,12-8.51,12,1.79,0,0,14.58,7.83,16.91,18.07,2,8.64,14,30.4,15.52,37.38-2.94,1.36-4.75,2.79-7.93,3-3-3.85-14.92-18-22-31.15A60.591,60.591,0,0,1,188,144.37C184.2,140.3,185.8,128.08,188.58,126.47Z" fill="#ea7554"/>
    <path id="路径_614" data-name="路径 614" d="M185.9,131.51S184,113.45,188.59,107s14.32-9.47,16.9-8.15,2.8,28.21-1.37,29.24a140.055,140.055,0,0,1-18.22,3.42Z" fill="#ffc36c"/>
    <path id="路径_615" data-name="路径 615" d="M210,145.31l-11.67-6.1,19.54-14.18,10.93,3.72" fill="#3129a3"/>
    <path id="路径_616" data-name="路径 616" d="M209.95,144.17c-.23-.84,4.65-17.07,4.65-17.07l22.68-14.42L231,131.21l-21,14.1Z" fill="#3129a3"/>
    <path id="路径_617" data-name="路径 617" d="M194.23,109.51c-.1.41-3.33,12.64,2.56,17.26s9.42,5.87,9.42,5.87-5.06,5.49-4.7,7.8c0,0-22.48-6.14-17.33-30.65" fill="#ffc36c"/>
    <path id="路径_618" data-name="路径 618" d="M203.17,90.92s1.72,11.23-3.3,13.34c-3.66,1.54-6-3.22-6.54-6.13a9.78,9.78,0,0,1,3.81-9.08C199.55,87.19,202.65,87.5,203.17,90.92Z" fill="#ffac99"/>
    <path id="路径_619" data-name="路径 619" d="M195.21,94.35s1-.48,1.43-.07-.35,2.17,1,2.24,5.14,0,7.36-2.66-.55-8.92-5.4-9.39-11.79,4-12.67,10.8-.73,7.17-2.83,9.2-4.76,2.18-3.22,5.8,5.85,2,5.92,5.25,4.53,6.66,9.14,3.94a5.807,5.807,0,0,0,.68-10C193.55,107.26,192.53,97,195.21,94.35Z" fill="#3129a3"/>
    <path id="路径_620" data-name="路径 620" d="M205.12,133.89s4.91-.22,4.82.38-2.08,1.58-2.08,1.58,3.37,2.85,3.26,3.24-1.66,2.79-3.26,2.91-5.91-3.48-5.91-3.48a20.739,20.739,0,0,1,3.17-4.63Z" fill="#ffac99"/>
    <path id="路径_621" data-name="路径 621" d="M370.55,199.93,388.39,191l-20.05-12-16.62,9.36C357.46,192.45,370.55,199.93,370.55,199.93Z" fill="url(#linear-gradient-3)"/>
    <path id="路径_622" data-name="路径 622" d="M340.79,159.44l.11,23.4,20.45,11.47,14.86-8.58V162.46" fill="#68e1fd"/>
    <path id="路径_623" data-name="路径 623" d="M361.35,194.31l-.04-23.25,14.9-8.6v23.27Z" fill="#606060" opacity="0.21"/>
    <path id="路径_624" data-name="路径 624" d="M343.79,164.47v5.06l14.17,8.08v-4.96Z" fill="#606060" opacity="0.21"/>
    <path id="路径_625" data-name="路径 625" d="M343.79,170.48v5.06l14.17,8.08v-4.96Z" fill="#606060" opacity="0.21"/>
    <ellipse id="椭圆_96" data-name="椭圆 96" cx="0.64" cy="0.9" rx="0.64" ry="0.9" transform="translate(354.414 172.69) rotate(-5.45)" fill="#fff"/>
    <ellipse id="椭圆_97" data-name="椭圆 97" cx="0.64" cy="0.9" rx="0.64" ry="0.9" transform="translate(353.945 178.687) rotate(-5.45)" fill="#fff"/>
    <path id="路径_626" data-name="路径 626" d="M343.79,176.32v5.05l14.17,8.09V184.5Z" fill="#606060" opacity="0.21"/>
    <ellipse id="椭圆_98" data-name="椭圆 98" cx="0.643" cy="0.904" rx="0.643" ry="0.904" transform="translate(354.631 187.117) rotate(-5.143)" fill="#fff"/>
    <path id="路径_627" data-name="路径 627" d="M361.31,171.06l-20.52-11.62,15.02-8.79,20.4,11.78Z" fill="#68e1fd"/>
    <path id="路径_628" data-name="路径 628" d="M361.31,171.06l-20.52-11.62,15.02-8.79,20.4,11.78Z" fill="#fff" opacity="0.44"/>
    <path id="路径_629" data-name="路径 629" d="M57.19,186.42l22.34-11.18-25.11-15L33.61,171.92C40.8,177.06,57.19,186.42,57.19,186.42Z" fill="url(#linear-gradient-4)"/>
    <path id="路径_630" data-name="路径 630" d="M67.11,145.11l-.1,23.39L46.56,179.98,31.69,171.4V148.12" fill="#68e1fd"/>
    <path id="路径_631" data-name="路径 631" d="M46.56,179.98l.04-23.25-14.91-8.61V171.4Z" fill="#606060" opacity="0.21"/>
    <path id="路径_632" data-name="路径 632" d="M64.12,150.14v5.05l-14.17,8.09v-4.96Z" fill="#606060" opacity="0.21"/>
    <path id="路径_633" data-name="路径 633" d="M64.12,156.15v5.05l-14.17,8.09v-4.96Z" fill="#606060" opacity="0.21"/>
    <ellipse id="椭圆_99" data-name="椭圆 99" cx="0.9" cy="0.64" rx="0.9" ry="0.64" transform="translate(52.051 160.024) rotate(-84.55)" fill="#fff"/>
    <ellipse id="椭圆_100" data-name="椭圆 100" cx="0.9" cy="0.64" rx="0.9" ry="0.64" transform="translate(52.517 166.025) rotate(-84.55)" fill="#fff"/>
    <path id="路径_634" data-name="路径 634" d="M64.12,161.98v5.06l-14.17,8.09v-4.96Z" fill="#606060" opacity="0.21"/>
    <ellipse id="椭圆_101" data-name="椭圆 101" cx="0.9" cy="0.64" rx="0.9" ry="0.64" transform="translate(52.51 171.859) rotate(-84.55)" fill="#fff"/>
    <path id="路径_635" data-name="路径 635" d="M46.6,156.73l20.51-11.62-15.01-8.8L31.69,148.09Z" fill="#68e1fd"/>
    <path id="路径_636" data-name="路径 636" d="M46.6,156.73l20.51-11.62-15.01-8.8L31.69,148.09Z" fill="#fff" opacity="0.44"/>
  </g>
  <g id="data-processing-isometric" transform="translate(11.833 285.636)">
    <g id="Layer_2" data-name="Layer 2">
      <path id="路径_397" data-name="路径 397" d="M194.28,291.14,14.56,184.93C8.84,181.71,3.93,176.44,9.51,173L189.88,69c2.71-1.68,6.82-2.78,9.57-1.18L388.11,177.34c5.72,3.32,6.75,12.6,1,15.93L218,291a23.9,23.9,0,0,1-23.72.14Z" fill="#7bbdef"/>
      <path id="路径_398" data-name="路径 398" d="M270.68,209.08c5.17,3,30.77,15.78,35.71,19.07l28.22-15.93-46.39-23.08L262.1,203.83C265,205.33,267.92,207.45,270.68,209.08Z" opacity="0.63" fill="url(#linear-gradient-5)"/>
      <path id="路径_399" data-name="路径 399" d="M165.03,55.13v52.32L213,134.97l100.14,57.48" fill="none" stroke="#f2f2f2" stroke-miterlimit="10" stroke-width="3"/>
      <path id="路径_400" data-name="路径 400" d="M134.92,39.22c.6-.76,9-5.71,9-5.71h0c1.71-1.89,4.89-1.23,9,2.36,0,0,.14-3.95,4.87-4.58s6.08,1.52,6.08,1.52,1.59-7.48,11.07-4.67c8.61,2.55,7.39,11.21,7.39,11.21s5.35-1.34,9.63,4.55a22.2,22.2,0,0,1,4,12.78S204.9,60,206,68.15a20.059,20.059,0,0,1,.18,2.13v.21a24.47,24.47,0,0,1-.47,5.25,3.42,3.42,0,0,1-1.68,2.38l-9.54,5.45a13.62,13.62,0,0,1,1-7l-47.21-27.4a20.6,20.6,0,0,1-5.13-7.39l-3.63-.94S134.33,40,134.92,39.22Z" fill="#053855" opacity="0.1"/>
      <path id="路径_401" data-name="路径 401" d="M134.92,39.22c.6-.76,9-5.71,9-5.71h0c1.71-1.89,4.89-1.23,9,2.36,0,0,.14-3.95,4.87-4.58s6.08,1.52,6.08,1.52,1.59-7.48,11.07-4.67c8.61,2.55,7.39,11.21,7.39,11.21s5.35-1.34,9.63,4.55a22.2,22.2,0,0,1,4,12.78S204.9,60,206,68.15a20.059,20.059,0,0,1,.18,2.13v.21a24.47,24.47,0,0,1-.47,5.25,3.42,3.42,0,0,1-1.68,2.38l-9.54,5.45a13.62,13.62,0,0,1,1-7l-47.21-27.4a20.6,20.6,0,0,1-5.13-7.39l-3.63-.94S134.33,40,134.92,39.22Z" fill="#053855" opacity="0.1"/>
      <path id="路径_402" data-name="路径 402" d="M134.92,39.22c.6-.76,9-5.71,9-5.71h0c1.71-1.89,4.89-1.23,9,2.36,0,0,.14-3.95,4.87-4.58s6.08,1.52,6.08,1.52,1.59-7.48,11.07-4.67c8.61,2.55,7.39,11.21,7.39,11.21s5.35-1.34,9.63,4.55a22.2,22.2,0,0,1,4,12.78S204.9,60,206,68.15a20.059,20.059,0,0,1,.18,2.13v.21a24.47,24.47,0,0,1-.47,5.25,3.42,3.42,0,0,1-1.68,2.38l-9.54,5.45a13.62,13.62,0,0,1,1-7l-47.21-27.4a20.6,20.6,0,0,1-5.13-7.39l-3.63-.94S134.33,40,134.92,39.22Z" fill="#68e1fd"/>
      <path id="路径_403" data-name="路径 403" d="M134.92,39.22c.6-.76,9-5.71,9-5.71h0c1.71-1.89,4.89-1.23,9,2.36,0,0,.14-3.95,4.87-4.58s6.08,1.52,6.08,1.52,1.59-7.48,11.07-4.67c8.61,2.55,7.39,11.21,7.39,11.21s5.35-1.34,9.63,4.55a22.2,22.2,0,0,1,4,12.78S204.9,60,206,68.15a20.059,20.059,0,0,1,.18,2.13v.21a24.47,24.47,0,0,1-.47,5.25,3.42,3.42,0,0,1-1.68,2.38l-9.54,5.45a13.62,13.62,0,0,1,1-7l-47.21-27.4a20.6,20.6,0,0,1-5.13-7.39l-3.63-.94S134.33,40,134.92,39.22Z" fill="#053855" opacity="0.23"/>
      <path id="路径_404" data-name="路径 404" d="M189.35,84.21,139.12,55s-6.16-5.4-5.78-11.45,4.38-7,10.4-1.8c0,0,.13-5.07,4.87-4.58a8.58,8.58,0,0,1,6.54,3.6s-.95-9,8.53-6.21a13.19,13.19,0,0,1,9.46,10.66s5.35-1.34,9.63,4.55a22.2,22.2,0,0,1,4,12.78s9,3.26,10.14,11.44S194.1,85.88,189.35,84.21Z" fill="#68e1fd"/>
      <path id="路径_405" data-name="路径 405" d="M235.11,99.35v60.31l20.2,13.36,22.85-13.11V97.63" opacity="0.3"/>
      <path id="路径_406" data-name="路径 406" d="M255.31,110.7v62.32l22.85-13.11V97.63Z" opacity="0.3"/>
      <path id="路径_407" data-name="路径 407" d="M235.3,99.46l23.01-13.29,20.04,11.57L255.5,110.81Z" opacity="0.3"/>
      <path id="路径_408" data-name="路径 408" d="M235.11,159.67l21.72,12L235,185.38h-.57c-8.83-4.87-14.8-8.48-21.07-12.35C222.43,166.84,227.6,165,235.11,159.67Z" opacity="0.63" fill="url(#linear-gradient-6)"/>
      <path id="路径_409" data-name="路径 409" d="M235.11,99.35v60.31l20.2,13.36,22.85-13.11V97.63" opacity="0.18"/>
      <path id="路径_410" data-name="路径 410" d="M195.21,136.39l21.39,11-21.8,13.67h-.57c-8.83-4.87-14.8-8.48-21.07-12.35C181.26,144.44,187.7,141.68,195.21,136.39Z" opacity="0.63" fill="url(#linear-gradient-7)"/>
      <path id="路径_411" data-name="路径 411" d="M216.1,147.75l21.11,9.81-23.83,13.9c-.19,0-.66-.23-.84-.23-8.83-4.87-10.25-6.25-16.53-10.12C196,161.12,208.6,153,216.1,147.75Z" opacity="0.63" fill="url(#linear-gradient-8)"/>
      <path id="路径_412" data-name="路径 412" d="M195.24,110.06v26.82l20.2,11.17,22.85-11.91v-27.8" fill="#8bd346"/>
      <path id="路径_413" data-name="路径 413" d="M215.44,121.41v26.64l22.85-11.91v-27.8Z" fill="#72b22f"/>
      <path id="路径_414" data-name="路径 414" d="M195.24,110.06l23.01-13.29,20.04,11.57-22.85,13.07Z" fill="#72b22f"/>
      <path id="路径_415" data-name="路径 415" d="M215.04,103.51v43.63l20.2,11.74,22.86-13.42V101.79" fill="#f49992"/>
      <path id="路径_416" data-name="路径 416" d="M235.24,114.86v44.02l22.86-13.02V101.79Z" fill="#ea6b65"/>
      <path id="路径_417" data-name="路径 417" d="M215.04,103.51l23.02-13.29,20.04,11.57-22.86,13.07Z" fill="#ffc8c2"/>
      <path id="路径_418" data-name="路径 418" d="M235.11,99.35v60.31l20.2,13.36,22.85-13.11V97.63" fill="#68e1fd"/>
      <path id="路径_419" data-name="路径 419" d="M255.31,110.7v62.32l22.85-13.11V97.63Z" fill="#68e1fd"/>
      <path id="路径_420" data-name="路径 420" d="M235.11,99.35v60.31l20.2,13.36,22.85-13.11V97.63" opacity="0.12"/>
      <path id="路径_421" data-name="路径 421" d="M255.31,110.7v62.32l22.85-13.11V97.63Z" fill="#68e1fd"/>
      <path id="路径_422" data-name="路径 422" d="M255.31,110.7v62.32l22.85-13.11V97.63Z" opacity="0.31"/>
      <path id="路径_423" data-name="路径 423" d="M235.3,99.46l23.01-13.29,20.04,11.57L255.5,110.81Z" fill="#68e1fd"/>
      <path id="路径_424" data-name="路径 424" d="M330.53,214.08l4.09-1.87,1.04-2.03-4.61-.42" fill="#56403d"/>
      <path id="路径_425" data-name="路径 425" d="M287.09,86.28l4.21-1.95v3.55Z" fill="#56403d"/>
      <path id="路径_426" data-name="路径 426" d="M293.95,84.38c9.61,5.69,33.38,19.76,40.49,23.89a4,4,0,0,1,2,3.47v97.61c.15,2-2.11,3.83-3.94,2.79l-40-22.76a4.57,4.57,0,0,1-2.63-4.07V86.71a2.7,2.7,0,0,1,4.08-2.33Z" fill="#56403d"/>
      <path id="路径_427" data-name="路径 427" d="M289.47,86.46c9.61,5.69,33.38,19.76,40.49,23.89a4,4,0,0,1,2,3.47v97.61c.15,2-2.11,3.83-3.94,2.79l-40-22.76a4.57,4.57,0,0,1-2.63-4.07V88.79a2.7,2.7,0,0,1,4.08-2.33Z" fill="#68e1fd"/>
      <path id="路径_428" data-name="路径 428" d="M312.52,128.14c-2.44-2.5-5.07-3.83-7.54-3.83a6.66,6.66,0,0,0-1.38.14,8,8,0,0,0-4.67,3.22,45.994,45.994,0,0,0-3.52-4.33,13,13,0,0,1,7.06-4.24c4.75-1,9.71.85,14,5.22a27.413,27.413,0,0,1,3.38,4.27c-1.56.94-3.08,2-4.6,3a22,22,0,0,0-2.73-3.45Z" fill="#56403d"/>
      <path id="路径_429" data-name="路径 429" d="M312.5,166.68c2.61-.78,4.78-3.19,6.14-6.85a27.94,27.94,0,0,0,.69-15.24,31.211,31.211,0,0,0-3.49-9.24c1.52-1,3-2,4.6-3a36.631,36.631,0,0,1,4.24,11.06,33.45,33.45,0,0,1-.92,18.28c-1.95,5.24-5.29,8.78-9.48,10.11C313.74,170.11,313.17,168.38,312.5,166.68Z" fill="#ffa197"/>
      <path id="路径_430" data-name="路径 430" d="M291.81,132.33a20.33,20.33,0,0,1,2.85-5.27,45.866,45.866,0,0,1,3.57,4.46,16.17,16.17,0,0,0-1.29,2.72,30.37,30.37,0,0,0,6.11,28.9c2.69,2.76,5.6,4.08,8.28,3.78.69,1.72,1.26,3.47,1.81,5.24h0a12.28,12.28,0,0,1-2.54.27c-3.94,0-7.92-1.89-11.42-5.48a35.78,35.78,0,0,1-7.32-34.62Z" fill="#f2f2f2"/>
      <ellipse id="椭圆_76" data-name="椭圆 76" cx="3.407" cy="6.166" rx="3.407" ry="6.166" transform="translate(299.53 143.021) rotate(-6.34)" fill="#f2f2f2"/>
      <path id="路径_431" data-name="路径 431" d="M291.16,175.53l31.54,17.61a1.09,1.09,0,0,1-1.06,1.9L290.1,177.43a1.09,1.09,0,0,1,1.06-1.9Z" fill="#f2f2f2"/>
      <path id="路径_432" data-name="路径 432" d="M291.66,171.39,323.2,189a1.09,1.09,0,0,1-1.06,1.9L290.6,173.3a1.092,1.092,0,0,1,1.06-1.91Z" fill="#f2f2f2"/>
      <path id="路径_433" data-name="路径 433" d="M171.98,113.92l26.66,17.85,3.08-27.45L175.09,86.41l-3.11,27.51" fill="#124577"/>
      <path id="路径_434" data-name="路径 434" d="M174.2,105.69a5.36,5.36,0,0,0-2.53,2.32v.08c-1.59,1.3-1.84,3.67-3.52,4.84,0,0-1.59,1.16-1.6,1.21s.15-2.17.15-2.16h0c-.55,1.5-1.08,3-1.56,4.53a.94.94,0,0,0,.24.11l-.18.09-.15.09a.51.51,0,0,1-.3.34,1.2,1.2,0,0,0,1.68,1.41l5.1-2.49a14.228,14.228,0,0,0,2-.58c0-.53.08-1.07.13-1.6a4.48,4.48,0,0,0,.34-4.23l.09-.09v-.06a3.89,3.89,0,0,0,1.61-2.54C175.74,106.23,175,105.31,174.2,105.69Z" fill="#f7931e"/>
      <path id="路径_435" data-name="路径 435" d="M138.78,244.17c4.32,3,9.84,5.06,14,8.35l31.32-22.36-27.44-7.73L130.82,239.8C133.19,241.31,136.47,242.55,138.78,244.17Z" opacity="0.63" fill="url(#linear-gradient-9)"/>
      <path id="路径_436" data-name="路径 436" d="M159.08,217.67v4.62s9.75-3.62,11.64-2c2.81,2.41-5.22,7.22-13.45,8.83a9.7,9.7,0,0,1-4.87.14c-2.43-.85-1.41-4.53-1.41-6.42s-.1-4-.14-6" fill="#124577"/>
      <path id="路径_437" data-name="路径 437" d="M173.33,224.09v4.62s9.75-3.62,11.64-2c2.81,2.41-5.22,7.22-13.45,8.83a9.7,9.7,0,0,1-4.87.14c-2.43-.85-1.41-4.53-1.41-6.42s-.1-4-.14-6" fill="#124577"/>
      <path id="路径_438" data-name="路径 438" d="M173.53,142.62s9.23,62.21,8.23,76.66c0,0-2.41,9.63-23.28,6.42,0,0-1.81-7.22-1-19.47s3-63.61,3-63.61Z" fill="#68e1fd"/>
      <path id="路径_439" data-name="路径 439" d="M168.41,216.14l-3.15-74.23-14-1.3s-4,19.27-2.81,28.5-1.4,21.47-2,27.89c-.54,5.76-.76,15.72,1.23,20.17C154.41,219.1,161.7,218.45,168.41,216.14Z" fill="#68e1fd"/>
      <path id="路径_440" data-name="路径 440" d="M167.71,110.51s5.82,3.61,6.42,6.62c0,0-4.09,8.88-3.81,9.23,4.62,6-9.23-3.81-9.23-3.81S163.9,114.12,167.71,110.51Z" fill="#68e1fd"/>
      <path id="路径_441" data-name="路径 441" d="M167.71,110.51s5.82,3.61,6.42,6.62c0,0-4.09,8.88-3.81,9.23,4.62,6-9.23-3.81-9.23-3.81S163.9,114.12,167.71,110.51Z" fill="#00a99d"/>
      <path id="路径_442" data-name="路径 442" d="M199.84,120.48a1.23,1.23,0,0,0-.8-1.69,1.39,1.39,0,0,0,.07-.92A1.24,1.24,0,0,0,198,117a1.44,1.44,0,0,0-.46,0v-.11a1.3,1.3,0,0,0-.9-1.15,1.22,1.22,0,0,0-.48,0,19.568,19.568,0,0,0,.82-2c.25-.68.73-1.9.14-2.53-.38-.41-.83-.24-1.21.07a1.51,1.51,0,0,0-.66.79,11.1,11.1,0,0,0-.67,1.23l-1,1.7h0a.43.43,0,0,0-.32-.09,2.37,2.37,0,0,0-2.27,1.64,20.441,20.441,0,0,0-1.14,4.09.45.45,0,0,0,.38.54l-.09.23a.48.48,0,0,0,.79.52l.06-.07a.46.46,0,0,0,.08.16l-.28.45c-.26.41.33.85.69.62l-.2.33c-.27.47.45.93.79.52l.28-.33a.55.55,0,0,0,.45.08.52.52,0,0,0,.15.36.44.44,0,0,0,.33.33v.11a.53.53,0,0,0,.29.66l-.09.13c-.35.49.36,1.13.72.63q1.06-1.49,2.11-3a.46.46,0,0,0,.17,0C197.74,122.68,199.4,121.88,199.84,120.48Zm-3.54-3.79a.31.31,0,0,1,.24.13l-.12.06-.23-.17Z" fill="#f7931e"/>
      <path id="路径_443" data-name="路径 443" d="M163.9,98c0,.13.81,8.27-1,10.07s-6.66,1.05-7.86-.91-2.67-4.54-1.39-7.58S163.68,96,163.9,98Z" fill="#f7931e"/>
      <path id="路径_444" data-name="路径 444" d="M161.29,103.26a.81.81,0,0,0-.14-.87A3.93,3.93,0,0,0,159,101a1.65,1.65,0,0,0-1.93,1c-.56,1.85,2.44,2.39,3.66,2.55a.82.82,0,0,0,.81-.81.73.73,0,0,0-.25-.48Z" fill="#ffe8e6"/>
      <path id="路径_445" data-name="路径 445" d="M157.59,219.83a124.127,124.127,0,0,1-2.11-14.09,50.168,50.168,0,0,1,0-7,67.7,67.7,0,0,1,1-7.11,51.58,51.58,0,0,0,.57-12.77c-.32-4.38-1-8.72-1.41-13.09a47.11,47.11,0,0,1,.48-14.76.519.519,0,0,0-1-.27c-1.94,8.72-.07,17.56.75,26.29a52.45,52.45,0,0,1-.26,13.56c-.37,2.2-.81,4.38-1,6.59a46.263,46.263,0,0,0-.17,7.14,115.493,115.493,0,0,0,2.22,15.71C156.75,220.73,157.71,220.46,157.59,219.83Z" fill="#fff"/>
      <path id="路径_446" data-name="路径 446" d="M189.08,117.82c-.09,4-8.89,8.73-14.93,5.59-2.94-1.52-4.12-10.84-17.14-10.78-.84,0-5.07-1.8-7.29,3.75s0,21.46,1.48,24.24c1.31,2.45,10,8.33,22.39,2l.19-5.74s1.73,0,4.13-.17a.49.49,0,0,1,.3-.88c7.39.25,15.2-5.43,19-12.18a17.32,17.32,0,0,0-8.13-5.83Z" fill="#00a99d"/>
      <path id="路径_447" data-name="路径 447" d="M179.93,135.51a16,16,0,0,1-18.79-6.24c-.26-.4-.9,0-.64.37a16.78,16.78,0,0,0,19.62,6.58C180.57,136.07,180.38,135.35,179.93,135.51Z" fill="#fff"/>
      <path id="路径_448" data-name="路径 448" d="M172.62,122a11.92,11.92,0,0,0-2.88-4.07c-1.42-1.29-3.17-2.12-4.65-3.33-.3-.24-.73.18-.43.43,1.4,1.14,3,1.94,4.42,3.11a11.48,11.48,0,0,1,3,4.16C172.25,122.7,172.77,122.39,172.62,122Z" fill="#fff"/>
      <path id="路径_449" data-name="路径 449" d="M164.08,99.12l-2.59,1.36s2,7.63,2.61,9.63-1.81,4.82-9.63,5-7.43-11.64-5.62-16.05,7.22-6.42,11.64-5.22a4.55,4.55,0,0,1,3.59,5.28Z" fill="#b24d16"/>
      <path id="路径_450" data-name="路径 450" d="M179.53,96.36l2.38,1.6-2.03,15.9-2.38-1.51Z" fill="#ffc8c2"/>
      <path id="路径_451" data-name="路径 451" d="M184.82,105.6c-.8-.45-1.54-1-2.29-1.51L181.2,114.6l2.38,1.51,1.34-10.48Z" fill="#68e1fd"/>
      <path id="路径_452" data-name="路径 452" d="M185.56,109.71l-.92,7.28L187,118.5l.93-7.31C187.13,110.75,186.36,110.22,185.56,109.71Z" fill="#8bd346"/>
      <path id="路径_453" data-name="路径 453" d="M31.2,194.68c5.17,3,10.29,5.57,15.23,8.86L76.8,186.36,48.74,174.73,22.63,189.42C25.47,190.93,28.44,193,31.2,194.68Z" opacity="0.63" fill="url(#linear-gradient-10)"/>
      <path id="路径_454" data-name="路径 454" d="M43.87,143.87v37.91s36.43,2,36.43,0V143.87" fill="#68e1fd"/>
      <ellipse id="椭圆_77" data-name="椭圆 77" cx="18.22" cy="8.32" rx="18.22" ry="8.32" transform="translate(43.87 173.13)" fill="#68e1fd"/>
      <ellipse id="椭圆_78" data-name="椭圆 78" cx="18.22" cy="8.32" rx="18.22" ry="8.32" transform="translate(43.87 135.55)" fill="#3129a3"/>
      <path id="路径_455" data-name="路径 455" d="M50.74,150.34l.13.07c.7.24,1.41.46,2.13.65l-5-41.51a2.49,2.49,0,0,0-2.54.47l5.08,40.25Z" fill="#f78b72"/>
      <path id="路径_456" data-name="路径 456" d="M56.4,151.63l1.54-39a2.49,2.49,0,0,0-2.58.06L54.09,151.3a20.421,20.421,0,0,0,2.31.33Z" fill="#f78b72"/>
      <path id="路径_457" data-name="路径 457" d="M62.09,152.19l5-40.62,10.14,5.36-4.1,34.12a31,31,0,0,1-11.04,1.14Z" fill="#fcb749"/>
    </g>
  </g>
  <g id="dna-isometric" transform="translate(-7.057 -13.57)">
    <path id="路径_458" data-name="路径 458" d="M194.28,289.5,14.56,183.29c-5.72-3.21-10.63-8.49-5.05-11.94l180.37-104c2.71-1.68,6.82-2.78,9.57-1.18L388.11,175.7c5.72,3.32,6.75,12.6,1,15.93L218,289.34a23.9,23.9,0,0,1-23.72.16Z" fill="#7bbdef"/>
    <path id="路径_459" data-name="路径 459" d="M309.15,196.37,288,188.61l-34.11,17.16,28.54,20.29C291.14,221.62,302.81,214.86,309.15,196.37Z" fill="url(#linear-gradient-11)"/>
    <path id="路径_460" data-name="路径 460" d="M74.43,178.36,51,167.35,27.42,179.22l21,12.44C57.07,187.21,65.72,182.73,74.43,178.36Z" fill="url(#linear-gradient-12)"/>
    <path id="路径_461" data-name="路径 461" d="M237.51,226.74l-67.88,34.12L95.65,221.78l62-35.09" fill="url(#linear-gradient-13)"/>
    <path id="路径_462" data-name="路径 462" d="M242.32,196.71c-10.25-9.48-31-16-55-16s-44.76,6.48-55,16H125.5V210.1c0,16.21,27.67,29.35,61.81,29.35s61.81-13.14,61.81-29.35V196.71Z" fill="#68e1fd"/>
    <path id="路径_463" data-name="路径 463" d="M242.32,196.71c-10.25-9.48-31-16-55-16s-44.76,6.48-55,16H125.5V210.1c0,16.21,27.67,29.35,61.81,29.35s61.81-13.14,61.81-29.35V196.71Z" fill="#1b4075" opacity="0.47"/>
    <ellipse id="椭圆_79" data-name="椭圆 79" cx="61.81" cy="29.35" rx="61.81" ry="29.35" transform="translate(125.49 167.36)" fill="#68e1fd"/>
    <path id="路径_464" data-name="路径 464" d="M125.08,23.4v174c0,16.21,27.67,29.35,61.81,29.35s61.81-13.14,61.81-29.35V26.11Z" opacity="0.38" fill="url(#linear-gradient-14)"/>
    <line id="直线_143" data-name="直线 143" y1="12.75" x2="40.27" transform="translate(164.46 23.4)" fill="none" stroke="#f15a24" stroke-miterlimit="10" stroke-width="1"/>
    <line id="直线_144" data-name="直线 144" y1="8.37" x2="46.57" transform="translate(163.79 32.72)" fill="none" stroke="#f15a24" stroke-miterlimit="10" stroke-width="1"/>
    <line id="直线_145" data-name="直线 145" x2="49.92" transform="translate(162 45.1)" fill="none" stroke="#f15a24" stroke-miterlimit="10" stroke-width="1"/>
    <line id="直线_146" data-name="直线 146" x2="47.81" y2="10.19" transform="translate(162.55 47.61)" fill="none" stroke="#f15a24" stroke-miterlimit="10" stroke-width="1"/>
    <line id="直线_147" data-name="直线 147" x2="37.26" y2="16.19" transform="translate(170.23 53.87)" fill="none" stroke="#f15a24" stroke-miterlimit="10" stroke-width="1"/>
    <line id="直线_148" data-name="直线 148" x2="10.55" y2="31.73" transform="translate(176.41 65.19)" fill="none" stroke="#f15a24" stroke-miterlimit="10" stroke-width="1"/>
    <line id="直线_149" data-name="直线 149" x2="10.43" y2="23.21" transform="translate(183.5 66.93)" fill="none" stroke="#f15a24" stroke-miterlimit="10" stroke-width="1"/>
    <line id="直线_150" data-name="直线 150" y1="10.91" x2="24.1" transform="translate(180.63 94.05)" fill="none" stroke="#f15a24" stroke-miterlimit="10" stroke-width="1"/>
    <line id="直线_151" data-name="直线 151" y1="13.7" x2="38.26" transform="translate(169.23 102.13)" fill="none" stroke="#f15a24" stroke-miterlimit="10" stroke-width="1"/>
    <path id="路径_465" data-name="路径 465" d="M163.83,120.85c.92-1,46.52-9.07,46.52-9.07" fill="none" stroke="#f15a24" stroke-miterlimit="10" stroke-width="1"/>
    <path id="路径_466" data-name="路径 466" d="M211.92,125.86S162,124.19,162,124.22c.5,2.25,48.36,12.33,48.36,12.33" fill="none" stroke="#f15a24" stroke-miterlimit="10" stroke-width="1"/>
    <line id="直线_152" data-name="直线 152" x2="37.26" y2="11.48" transform="translate(170.23 136.55)" fill="none" stroke="#f15a24" stroke-miterlimit="10" stroke-width="1"/>
    <line id="直线_153" data-name="直线 153" x2="5.41" y2="25.48" transform="translate(181.68 144.9)" fill="none" stroke="#f15a24" stroke-miterlimit="10" stroke-width="1"/>
    <line id="直线_154" data-name="直线 154" x2="5.72" y2="17.47" transform="translate(186.96 149.07)" fill="none" stroke="#f15a24" stroke-miterlimit="10" stroke-width="1"/>
    <line id="直线_155" data-name="直线 155" y1="13.08" x2="23.64" transform="translate(181.09 171.5)" fill="none" stroke="#f15a24" stroke-miterlimit="10" stroke-width="1"/>
    <line id="直线_156" data-name="直线 156" y1="14.96" x2="39.67" transform="translate(167.82 181.41)" fill="none" stroke="#f15a24" stroke-miterlimit="10" stroke-width="1"/>
    <path id="路径_467" data-name="路径 467" d="M162.3,33.58a21.53,21.53,0,0,0-5.86,8.82,10.58,10.58,0,0,0-.24,5.6,11,11,0,0,0,3,4.92,47.48,47.48,0,0,0,8.8,6.69c1.52,1,3,1.9,4.55,2.88.68.44,1.36.89,2,1.36s1.45,1,1.83,1.34a110.67,110.67,0,0,1,16.4,15.44,70.34,70.34,0,0,1,11.36,18.75,71.49,71.49,0,0,1,5.19,23.44,50.37,50.37,0,0,1-3.52,21.89c-.19.46-.51,1.19-.89,2s-.78,1.58-1.19,2.36q-1.26,2.34-2.71,4.56c-.97,1.48-2,3-3.08,4.39l-.38.51-.11.15-.9,1.13q-.86,1.07-1.75,2.12a189.113,189.113,0,0,1-14.35,14.95c-7.31,6.94-14.9,13.6-22.68,20l-.42.35a3,3,0,0,0,0,4.28,3.1,3.1,0,0,0,4.28,0c6.65-5.43,13.12-11.1,19.43-16.92,5-4.61,9.91-9.33,14.49-14.36a92.851,92.851,0,0,0,13.19-17.69,54.38,54.38,0,0,0,6.5-21.79,71.87,71.87,0,0,0-2.45-24.59A75.79,75.79,0,0,0,203,84.22,91.649,91.649,0,0,0,187.94,67q-4.33-3.91-9-7.42c-2.78-2.08-5.8-3.82-8.71-5.7-.76-.49-1.51-1-2.25-1.5l-1-.73-.5-.37a1.78,1.78,0,0,1-.25-.19,21.23,21.23,0,0,1-3.66-3.47c.26.34,0-.06-.06-.11l-.28-.5c-.41-.74.07.29-.06-.17a1.608,1.608,0,0,0-.14-.52c-.16-.4,0,.45,0,0V45.24c0-.35-.11.43,0-.14a10.073,10.073,0,0,1,.28-1.08c.06-.18.12-.36.19-.54.29-.85-.14.28.09-.21a17.11,17.11,0,0,1,1.24-2.18c.22-.33.45-.65.68-1-.28.37,0,0,.07-.07l.46-.55a20.374,20.374,0,0,1,1.58-1.65,3.026,3.026,0,0,0-4.28-4.28Z" fill="#a2c609"/>
    <path id="路径_468" data-name="路径 468" d="M203.11,20.56a24.226,24.226,0,0,1,1.62,2.84q.35.69.67,1.39l.39.87c.08.19.3.61-.05-.13.11.23.2.48.29.72q.86,2.16,1.5,4.39a50.3,50.3,0,0,1,1.29,5.66c.08.47.15.95.22,1.43-.09-.65,0,.33,0,.37l.1.9q.17,1.72.22,3.46a52.631,52.631,0,0,1-1.5,14.1A76.22,76.22,0,0,1,196,82.82a84.091,84.091,0,0,1-9,11,97.79,97.79,0,0,1-11.7,10c-3.51,2.63-7.07,5.19-10.51,7.91-2.87,2.27-5.86,4.91-7.55,8.23a9.57,9.57,0,0,0,1.14,11,19.7,19.7,0,0,0,3.33,2.93c2.87,2.15,6,3.94,9,5.9,1.95,1.27,3.87,2.59,5.74,4l1.47,1.11c.33.25-.61-.48-.12-.09l.43.34.86.69q1.64,1.32,3.22,2.72a85.9,85.9,0,0,1,6.45,6.38q1.72,1.89,3.32,3.87l.75.94c.07.08.57.73.13.16l.3.39q.92,1.2,1.79,2.44a110.279,110.279,0,0,1,12,22.11q1.38,3.42,2.57,6.91a3.1,3.1,0,0,0,3.72,2.11,3.06,3.06,0,0,0,2.11-3.72C210,174.37,202,159.4,190.13,147.58a96.58,96.58,0,0,0-13-10.75c-3.3-2.3-6.75-4.38-10.11-6.6-.66-.43-1.31-.88-1.94-1.34l-.4-.3c-.63-.46.51.42.12.09s-.54-.44-.81-.66a15.7,15.7,0,0,1-1.28-1.26,2.478,2.478,0,0,1-.24-.29s.44.71.06,0c-.1-.17-.21-.34-.31-.51s-.26-.81-.06-.1a1.624,1.624,0,0,0-.13-.41c-.04-.14-.09-.41-.13-.62.16.85,0,.1,0-.13v-.52h0a4.688,4.688,0,0,1,.32-1c-.25.76.16-.31.26-.49a13.16,13.16,0,0,1,.74-1.19c.06-.09.55-.74.1-.16l.39-.48a13.187,13.187,0,0,1,.92-1c.64-.68,1.32-1.32,2-1.94s1.32-1.13,2-1.68l.47-.37c.1-.08.73-.56.12-.09l1-.79q2.58-1.94,5.17-3.88c4.28-3.18,8.59-6.36,12.54-9.94a86.269,86.269,0,0,0,10.44-11.58,85.881,85.881,0,0,0,13.79-26.21,61.1,61.1,0,0,0,2.25-29.21,47,47,0,0,0-5.81-16c-.14-.22-.27-.45-.42-.66a3.11,3.11,0,0,0-4.14-1.09,3.05,3.05,0,0,0-1.09,4.14Z" fill="#a2c609"/>
    <path id="路径_469" data-name="路径 469" d="M162.86,29.53c-6.43,0-6.45,10,0,10S169.3,29.53,162.86,29.53Z" fill="#ff3809"/>
    <path id="路径_470" data-name="路径 470" d="M160.58,40.94c-6.43,0-6.45,10,0,10S167,40.94,160.58,40.94Z" fill="#ff3809"/>
    <path id="路径_471" data-name="路径 471" d="M168.18,50.82c-6.43,0-6.45,10,0,10S174.62,50.82,168.18,50.82Z" fill="#ff3809"/>
    <path id="路径_472" data-name="路径 472" d="M178.44,58.42c-6.43,0-6.45,10,0,10S184.89,58.42,178.44,58.42Z" fill="#ff3809"/>
    <path id="路径_473" data-name="路径 473" d="M187.18,64.88c-6.43,0-6.45,10,0,10S193.63,64.88,187.18,64.88Z" fill="#ff3809"/>
    <path id="路径_474" data-name="路径 474" d="M196.3,74.38c-6.43,0-6.45,10,0,10S202.75,74.38,196.3,74.38Z" fill="#ff3809"/>
    <path id="路径_475" data-name="路径 475" d="M203.91,88.45c-6.43,0-6.45,10,0,10S210.35,88.45,203.91,88.45Z" fill="#ff3809"/>
    <path id="路径_476" data-name="路径 476" d="M208.47,101.75c-6.43,0-6.45,10,0,10S214.91,101.75,208.47,101.75Z" fill="#ff3809"/>
    <path id="路径_477" data-name="路径 477" d="M210,117.71c-6.43,0-6.45,10,0,10S216.43,117.71,210,117.71Z" fill="#ff3809"/>
    <path id="路径_478" data-name="路径 478" d="M211.13,132.16c-6.43,0-6.45,10,0,10S217.57,132.16,211.13,132.16Z" fill="#ff3809"/>
    <path id="路径_479" data-name="路径 479" d="M208.47,142c-6.43,0-6.45,10,0,10S214.91,142,208.47,142Z" fill="#ff3809"/>
    <path id="路径_480" data-name="路径 480" d="M201.63,153.82c-6.43,0-6.45,10,0,10S208.07,153.82,201.63,153.82Z" fill="#ff3809"/>
    <path id="路径_481" data-name="路径 481" d="M193.64,165.6c-6.43,0-6.45,10,0,10S200.09,165.6,193.64,165.6Z" fill="#ff3809"/>
    <path id="路径_482" data-name="路径 482" d="M184.52,175.48c-6.43,0-6.45,10,0,10S191,175.48,184.52,175.48Z" fill="#ff3809"/>
    <path id="路径_483" data-name="路径 483" d="M173.5,185c-6.43,0-6.45,10,0,10S179.95,185,173.5,185Z" fill="#ff3809"/>
    <path id="路径_484" data-name="路径 484" d="M164.76,193.73c-6.43,0-6.45,10,0,10S171.2,193.73,164.76,193.73Z" fill="#ff3809"/>
    <path id="路径_485" data-name="路径 485" d="M206.95,13.57c-6.43,0-6.45,10,0,10S213.39,13.57,206.95,13.57Z" fill="#0097da"/>
    <path id="路径_486" data-name="路径 486" d="M210.75,26.11c-6.43,0-6.45,10,0,10S217.19,26.11,210.75,26.11Z" fill="#0097da"/>
    <path id="路径_487" data-name="路径 487" d="M212.27,39c-6.43,0-6.45,10,0,10S218.71,39,212.27,39Z" fill="#0097da"/>
    <path id="路径_488" data-name="路径 488" d="M210,50.82c-6.43,0-6.45,10,0,10S216.43,50.82,210,50.82Z" fill="#0097da"/>
    <path id="路径_489" data-name="路径 489" d="M207.33,62.22c-6.43,0-6.45,10,0,10S213.77,62.22,207.33,62.22Z" fill="#0097da"/>
    <path id="路径_490" data-name="路径 490" d="M191,87.69c-6.43,0-6.45,10,0,10S197.43,87.69,191,87.69Z" fill="#0097da"/>
    <path id="路径_491" data-name="路径 491" d="M183,96.43c-6.43,0-6.45,10,0,10S189.45,96.43,183,96.43Z" fill="#0097da"/>
    <path id="路径_492" data-name="路径 492" d="M175.4,103.65c-6.43,0-6.45,10,0,10S181.85,103.65,175.4,103.65Z" fill="#0097da"/>
    <path id="路径_493" data-name="路径 493" d="M165.52,111.25c-6.43,0-6.45,10,0,10S172,111.25,165.52,111.25Z" fill="#0097da"/>
    <path id="路径_494" data-name="路径 494" d="M162.48,123.79c-6.43,0-6.45,10,0,10S168.92,123.79,162.48,123.79Z" fill="#0097da"/>
    <path id="路径_495" data-name="路径 495" d="M172.74,131.4c-6.43,0-6.45,10,0,10S179.18,131.4,172.74,131.4Z" fill="#0097da"/>
    <path id="路径_496" data-name="路径 496" d="M183,139.38c-6.43,0-6.45,10,0,10S189.45,139.38,183,139.38Z" fill="#0097da"/>
    <path id="路径_497" data-name="路径 497" d="M190.6,147.74c-6.43,0-6.45,10,0,10S197,147.74,190.6,147.74Z" fill="#0097da"/>
    <path id="路径_498" data-name="路径 498" d="M205.81,169c-6.43,0-6.45,10,0,10S212.25,169,205.81,169Z" fill="#0097da"/>
    <path id="路径_499" data-name="路径 499" d="M210.37,179.28c-6.43,0-6.45,10,0,10S216.81,179.28,210.37,179.28Z" fill="#0097da"/>
    <path id="路径_500" data-name="路径 500" d="M199.73,83.13c-6.43,0-6.45,10,0,10S206.17,83.13,199.73,83.13Z" fill="#0097da"/>
    <path id="路径_501" data-name="路径 501" d="M285.21,179.11s-.64,8.64-2.14,9.91-7.44,5.83-8.46,6.57-.05,3.21,3.46,3.21,10.21-4.14,10.21-4.14l5-1.84s.69-8.36-.37-13.52S285.21,179.11,285.21,179.11Z" fill="#4a2b0f"/>
    <path id="路径_502" data-name="路径 502" d="M302,193.07s-3.49,16.84-1.2,18.13,7.47-1.49,8.27-4.38.5-20,0-20.13" fill="#4a2b0f"/>
    <path id="路径_503" data-name="路径 503" d="M280.54,119.91l.87,62.48s7.71,2.62,15,0L295,123.23l4.25,72.69a17,17,0,0,0,13.07,0l-1.36-81.35-33.51-15Z" fill="#68e1fd"/>
    <path id="路径_504" data-name="路径 504" d="M299.11,58.14s-5.76-3.19-11.06-1.64-5.52,25-5.6,26.52.56,20.92.56,20.92l8.29,3.19Z" fill="#fff"/>
    <path id="路径_505" data-name="路径 505" d="M275.13,96.19c-5.13.39-14.58-14.66-14.58-14.66,5.24-2.78,5.48-8.84,5.48-8.84l12.91,11.88" fill="#dbdbdb"/>
    <path id="路径_506" data-name="路径 506" d="M260.55,81.53S258.1,81,260,76.45s4.65-5,6-3.76S265.23,81.88,260.55,81.53Z" fill="#9e9e9e"/>
    <path id="路径_507" data-name="路径 507" d="M291.32,56.05s-8.1-2.3-12.07,7c-5.38,12.54-5.64,84.24-5.64,84.24a18.8,18.8,0,0,0,8.86,4.83s.69-74,1.28-78.68C284.71,65.68,291.32,56.05,291.32,56.05Z" fill="#dbdbdb"/>
    <path id="路径_508" data-name="路径 508" d="M285.13,56.63s-4.57,5.44-4.23,5.44,1.64,1.64,1.64,1.64L280,66.21l3.31,35s-2.41-25.46,8.07-45.12C291.34,56.12,286.85,55.58,285.13,56.63Z" fill="#eef3f7"/>
    <path id="路径_509" data-name="路径 509" d="M299.11,58.14s8.12,2.83,10.23,10.29c2.18,7.69,2.52,85.07,2.52,85.88s-5.16,4-9.52,4.69-10.78-1.83-10.78-1.83L290.4,112s.55-25.94,1.16-30.88S299.11,58.14,299.11,58.14Z" fill="#dbdbdb"/>
    <path id="路径_510" data-name="路径 510" d="M302.81,120.56q-.37-19.19-.34-38.38a.67.67,0,0,0-1.34,0q-.06,19.37.35,38.73Z" fill="#9e9e9e"/>
    <path id="路径_511" data-name="路径 511" d="M300,144.77s17.67-16.79,18.91-16,1.11,26.17.86,26.91-12.39,13.21-13.85,13.58-7.13,0-7.13,0Z" fill="#4a2b0f"/>
    <path id="路径_512" data-name="路径 512" d="M305.4,142.09s-2.09-11.27,4-13.39,4.45,6.58,4.45,6.58l2.12-2.5s-.5-8.66-6.89-6.36-7.34,10.74-6.28,17" fill="#4a2b0f"/>
    <path id="路径_513" data-name="路径 513" d="M311.56,117.95a18.36,18.36,0,0,1-7,2.46,23.592,23.592,0,0,1-1.95,5.05c-.45,2-.5,3.86,1.51,3.67a.67.67,0,0,0,.56-.41c.06.54.12,1.07.19,1.61a.5.5,0,0,0,.15.27,1,1,0,0,0,1.14.7.89.89,0,0,0,.45-.17,1.13,1.13,0,0,0,.81,1,1,1,0,0,0,1.19-.52,1.23,1.23,0,0,0,1.56.48,1.56,1.56,0,0,0,.75-.91.62.62,0,0,0,.27-.25c1.56-2.7,1.26-5.65.48-8.52C311.61,120.89,311.59,119.42,311.56,117.95Z" fill="#f0b387"/>
    <path id="路径_514" data-name="路径 514" d="M299.11,57.88l3.23,1.89-1.22,6.81-4,.53,1.29,3.8s-4.25,9.36-5,10.95S290.73,99,290.73,99s.47-16.83,1-19S295.23,64.28,299.11,57.88Z" fill="#eef3f7"/>
    <path id="路径_515" data-name="路径 515" d="M310.66,117.18a25.11,25.11,0,0,1-8.65,3.08c-.85.14-.49,1.43.36,1.29a26.14,26.14,0,0,0,9-3.22.676.676,0,1,0-.71-1.15Z" fill="#9e9e9e"/>
    <path id="路径_516" data-name="路径 516" d="M290.4,59s.84,2.63,2.94,2.56,3.68-1.37,4.51-3.78" fill="#d89261"/>
    <path id="路径_517" data-name="路径 517" d="M287,48.27a4.29,4.29,0,0,1-2.13-4c0-3,4.69-5.31,6.62-5.58,2.49-.35,10.79.68,11.3,6.88.36,4.31-2.59,12-4.76,12" fill="#4a2b0f"/>
    <path id="路径_518" data-name="路径 518" d="M298.42,53.33a27.9,27.9,0,0,0-.78-2.86q-.16-.48-.34-1c-.59-1.53-1.49-1.07-2.9-1.08a13,13,0,0,1-3.18-.32,17.15,17.15,0,0,1-4.52-1.94c-.21,3.32-.35,13.08,5.07,13.92,3.29.51,5.09-.79,6.09-2.35C298.07,56.28,298.24,54.8,298.42,53.33Z" fill="#f0b387"/>
    <path id="路径_519" data-name="路径 519" d="M297.22,52.93s1.31-3.32,2.3-1.67c1.11,1.83-1.26,3.12-1.26,3.12" fill="#f0b387"/>
    <ellipse id="椭圆_80" data-name="椭圆 80" cx="2.17" cy="2.59" rx="2.17" ry="2.59" transform="translate(284.905 49.928) rotate(-16.98)" fill="none" stroke="#42210b" stroke-miterlimit="10" stroke-width="0.25"/>
    <ellipse id="椭圆_81" data-name="椭圆 81" cx="2.17" cy="2.59" rx="2.17" ry="2.59" transform="translate(290.745 51.351) rotate(-16.98)" fill="none" stroke="#42210b" stroke-miterlimit="10" stroke-width="0.25"/>
    <line id="直线_157" data-name="直线 157" y1="2.92" x2="4.3" transform="translate(295.65 49.64)" fill="none" stroke="#42210b" stroke-miterlimit="10" stroke-width="0.25"/>
    <path id="路径_520" data-name="路径 520" d="M290.06,52.42s1,0,1.32.36" fill="none" stroke="#42210b" stroke-miterlimit="10" stroke-width="0.25"/>
    <path id="路径_521" data-name="路径 521" d="M258.64,78.44s4.2.73,6.89-.64,1.34-5.65-.73-5.59a32.42,32.42,0,0,0-6.16,1.36" fill="#f0b387"/>
    <path id="路径_522" data-name="路径 522" d="M254.15,75.75s-8,13.2-9.16,16.43,2.25,10.55,13.24,10.69,13.17-8.31,13-9.58-9.94-17.92-9.94-17.92" fill="#c0f3f8"/>
    <path id="路径_523" data-name="路径 523" d="M253.76,68.15V80s-8,12.13-7.37,14.44,3.63,6.39,11.84,6.45c9.15.06,10.68-6.83,10.68-7.41s-7.67-13.57-7.67-13.57V68.15" fill="#c0f3f8"/>
    <ellipse id="椭圆_82" data-name="椭圆 82" cx="3.74" cy="2.13" rx="3.74" ry="2.13" transform="translate(253.76 66.02)" fill="#93d8db"/>
    <path id="路径_524" data-name="路径 524" d="M261.25,79.95V77.6c-2.16-1.58-5.67-1.8-7.49.16V80c-1.2,1.82-2.36,3.67-3.46,5.55-.89,1.5-1.75,3-2.53,4.59-.68,1.38-1.72,3.16-1.24,4.73,1.46,4.76,6.95,6.59,11.41,6.62,2.92,0,6-.61,8.26-2.6,1.69-1.5,3.31-4.07,2.42-6.38a33.9,33.9,0,0,0-2.53-4.62c-1.55-2.67-3.17-5.31-4.81-7.93Z" fill="#68e1fd"/>
    <ellipse id="椭圆_83" data-name="椭圆 83" cx="3.74" cy="1.92" rx="3.74" ry="1.92" transform="translate(253.76 75.75)" fill="#68e1fd"/>
    <path id="路径_525" data-name="路径 525" d="M263.56,91.61q-1.47-3.88-2.61-7.87a.841.841,0,0,0-1.62.45q1.14,4,2.61,7.87C262.31,93.06,263.94,92.63,263.56,91.61Z" fill="#fff"/>
    <path id="路径_526" data-name="路径 526" d="M263.71,94a.84.84,0,1,0,.84.84.84.84,0,0,0-.84-.84Z" fill="#fff"/>
    <path id="路径_527" data-name="路径 527" d="M254.5,68.57s-1.85.11-2.07.92a1.16,1.16,0,0,0,.44,1.25s-1.8.71-1.52,1.74a6.768,6.768,0,0,0,.54,1.51s-1.58.89-1.25,1.65,4,2.77,5,2,0-2.39,0-2.39,1.47-1.39,1.25-2-1.14-1.07-1.14-1.07,1.58-1,1.16-1.9S254.5,68.57,254.5,68.57Z" fill="#f0b387"/>
    <path id="路径_528" data-name="路径 528" d="M263.6,71.54a26.749,26.749,0,0,1-3-1.18,1.6,1.6,0,0,0-1.54.15c-1.23.84-3.51,2.54-3.07,3.28.61,1,3.34-.25,3.8-.34s1.68,2.35,5.1,2c0,0,1.81-2.25,1.25-2.72a14.35,14.35,0,0,0-2.54-1.19Z" fill="#f0b387"/>
    <path id="路径_529" data-name="路径 529" d="M66.5,156.88c5-.43,10.25-1.94,13.94-5.36v14.8a15.36,15.36,0,0,1-15.36,15.36h0a15.36,15.36,0,0,1-15.36-15.36V151.27C55,153.41,60.9,157.36,66.5,156.88Z" fill="#68e1fd"/>
    <ellipse id="椭圆_84" data-name="椭圆 84" cx="15.36" cy="8.14" rx="15.36" ry="8.14" transform="translate(49.72 143.28)" fill="#5ed18d"/>
    <path id="路径_530" data-name="路径 530" d="M65.08,152.81s10.45-1.54,13.21-18.43C78.29,134.37,69.38,139.29,65.08,152.81Z" fill="#5ed18d"/>
    <path id="路径_531" data-name="路径 531" d="M63.54,150.66s12-21.51,0-35.94a60.25,60.25,0,0,0,0,35.94Z" fill="#5ed18d"/>
    <path id="路径_532" data-name="路径 532" d="M65.08,137.14s10.45-1.54,13.21-18.43C78.29,118.7,69.38,123.62,65.08,137.14Z" fill="#5ed18d"/>
    <path id="路径_533" data-name="路径 533" d="M63.81,144s2.62-10.23-11.9-19.3C51.91,124.72,53,134.84,63.81,144Z" fill="#5ed18d"/>
    <ellipse id="椭圆_85" data-name="椭圆 85" cx="15.36" cy="8.14" rx="15.36" ry="8.14" transform="translate(49.72 143.28)" fill="#146666"/>
    <path id="路径_534" data-name="路径 534" d="M65.08,152.81s10.45-1.54,13.21-18.43C78.29,134.37,69.38,139.29,65.08,152.81Z" fill="#5ed18d"/>
    <path id="路径_535" data-name="路径 535" d="M63.54,150.66s12-21.51,0-35.94a60.25,60.25,0,0,0,0,35.94Z" fill="#5ed18d"/>
    <path id="路径_536" data-name="路径 536" d="M65.08,137.14s10.45-1.54,13.21-18.43C78.29,118.7,69.38,123.62,65.08,137.14Z" fill="#5ed18d"/>
    <path id="路径_537" data-name="路径 537" d="M63.81,144s2.62-10.23-11.9-19.3C51.91,124.72,53,134.84,63.81,144Z" fill="#5ed18d"/>
  </g>
</svg>
